<mxfile host="app.diagrams.net" modified="2023-04-23T07:51:19.255Z" agent="Mozilla/5.0 (Windows NT 10.0; Win64; x64) AppleWebKit/537.36 (KHTML, like Gecko) Chrome/112.0.0.0 Safari/537.36 Edg/112.0.1722.58" etag="OI8_4Gw6SblW5DF5Cy5R" version="21.2.1" type="device">
  <diagram name="Page-1" id="syowfsKHFsxV_Me51-SX">
    <mxGraphModel dx="1123" dy="401" grid="0" gridSize="5" guides="1" tooltips="1" connect="1" arrows="1" fold="1" page="0" pageScale="1" pageWidth="850" pageHeight="1100" math="0" shadow="0">
      <root>
        <mxCell id="0" />
        <mxCell id="1" parent="0" />
        <mxCell id="SOpziabgbnz-NQojUkEX-2" value="" style="rounded=1;whiteSpace=wrap;html=1;absoluteArcSize=1;arcSize=14;strokeWidth=2;dashed=1;dashPattern=8 8;" vertex="1" parent="1">
          <mxGeometry x="40" y="200" width="490" height="180" as="geometry" />
        </mxCell>
        <mxCell id="SOpziabgbnz-NQojUkEX-1" value="&lt;b&gt;&lt;font style=&quot;font-size: 7px;&quot;&gt;TYPE_AES&lt;/font&gt;&lt;/b&gt;" style="rounded=1;whiteSpace=wrap;html=1;absoluteArcSize=1;arcSize=14;strokeWidth=2;" vertex="1" parent="1">
          <mxGeometry x="70" y="279" width="40" height="40" as="geometry" />
        </mxCell>
        <mxCell id="SOpziabgbnz-NQojUkEX-4" value="" style="endArrow=classic;html=1;rounded=0;" edge="1" parent="1">
          <mxGeometry relative="1" as="geometry">
            <mxPoint x="-60" y="220" as="sourcePoint" />
            <mxPoint x="40" y="220" as="targetPoint" />
          </mxGeometry>
        </mxCell>
        <mxCell id="SOpziabgbnz-NQojUkEX-5" value="clk_i" style="edgeLabel;resizable=0;html=1;align=center;verticalAlign=middle;" connectable="0" vertex="1" parent="SOpziabgbnz-NQojUkEX-4">
          <mxGeometry relative="1" as="geometry" />
        </mxCell>
        <mxCell id="SOpziabgbnz-NQojUkEX-6" value="" style="endArrow=classic;html=1;rounded=0;" edge="1" parent="1">
          <mxGeometry relative="1" as="geometry">
            <mxPoint x="-60" y="245" as="sourcePoint" />
            <mxPoint x="40" y="245" as="targetPoint" />
          </mxGeometry>
        </mxCell>
        <mxCell id="SOpziabgbnz-NQojUkEX-7" value="rst_ni" style="edgeLabel;resizable=0;html=1;align=center;verticalAlign=middle;" connectable="0" vertex="1" parent="SOpziabgbnz-NQojUkEX-6">
          <mxGeometry relative="1" as="geometry" />
        </mxCell>
        <mxCell id="SOpziabgbnz-NQojUkEX-8" value="" style="endArrow=classic;html=1;rounded=0;" edge="1" parent="1">
          <mxGeometry relative="1" as="geometry">
            <mxPoint x="-60" y="271" as="sourcePoint" />
            <mxPoint x="40" y="271" as="targetPoint" />
          </mxGeometry>
        </mxCell>
        <mxCell id="SOpziabgbnz-NQojUkEX-9" value="ready_i" style="edgeLabel;resizable=0;html=1;align=center;verticalAlign=middle;" connectable="0" vertex="1" parent="SOpziabgbnz-NQojUkEX-8">
          <mxGeometry relative="1" as="geometry" />
        </mxCell>
        <mxCell id="SOpziabgbnz-NQojUkEX-10" value="" style="endArrow=classic;html=1;rounded=0;" edge="1" parent="1">
          <mxGeometry relative="1" as="geometry">
            <mxPoint x="-60" y="299" as="sourcePoint" />
            <mxPoint x="40" y="299" as="targetPoint" />
          </mxGeometry>
        </mxCell>
        <mxCell id="SOpziabgbnz-NQojUkEX-11" value="sel_i" style="edgeLabel;resizable=0;html=1;align=center;verticalAlign=middle;" connectable="0" vertex="1" parent="SOpziabgbnz-NQojUkEX-10">
          <mxGeometry relative="1" as="geometry" />
        </mxCell>
        <mxCell id="SOpziabgbnz-NQojUkEX-12" value="" style="endArrow=classic;html=1;rounded=0;" edge="1" parent="1">
          <mxGeometry relative="1" as="geometry">
            <mxPoint x="-60" y="338" as="sourcePoint" />
            <mxPoint x="40" y="338" as="targetPoint" />
          </mxGeometry>
        </mxCell>
        <mxCell id="SOpziabgbnz-NQojUkEX-13" value="plain_text_i" style="edgeLabel;resizable=0;html=1;align=center;verticalAlign=middle;" connectable="0" vertex="1" parent="SOpziabgbnz-NQojUkEX-12">
          <mxGeometry relative="1" as="geometry" />
        </mxCell>
        <mxCell id="SOpziabgbnz-NQojUkEX-14" value="" style="endArrow=classic;html=1;rounded=0;" edge="1" parent="1">
          <mxGeometry relative="1" as="geometry">
            <mxPoint x="-60" y="362" as="sourcePoint" />
            <mxPoint x="40" y="362" as="targetPoint" />
          </mxGeometry>
        </mxCell>
        <mxCell id="SOpziabgbnz-NQojUkEX-15" value="cipher_key_i" style="edgeLabel;resizable=0;html=1;align=center;verticalAlign=middle;" connectable="0" vertex="1" parent="SOpziabgbnz-NQojUkEX-14">
          <mxGeometry relative="1" as="geometry" />
        </mxCell>
        <mxCell id="SOpziabgbnz-NQojUkEX-16" value="" style="endArrow=classic;html=1;rounded=0;exitX=0.003;exitY=0.549;exitDx=0;exitDy=0;exitPerimeter=0;entryX=0;entryY=0.5;entryDx=0;entryDy=0;" edge="1" parent="1" source="SOpziabgbnz-NQojUkEX-2" target="SOpziabgbnz-NQojUkEX-1">
          <mxGeometry width="50" height="50" relative="1" as="geometry">
            <mxPoint x="60" y="320" as="sourcePoint" />
            <mxPoint x="110" y="270" as="targetPoint" />
          </mxGeometry>
        </mxCell>
        <mxCell id="SOpziabgbnz-NQojUkEX-18" value="" style="endArrow=classic;html=1;rounded=0;entryX=0.75;entryY=0;entryDx=0;entryDy=0;fillColor=#dae8fc;strokeColor=#6c8ebf;" edge="1" parent="1" target="SOpziabgbnz-NQojUkEX-27">
          <mxGeometry relative="1" as="geometry">
            <mxPoint x="110" y="284.33" as="sourcePoint" />
            <mxPoint x="160" y="284.33" as="targetPoint" />
            <Array as="points">
              <mxPoint x="180" y="284" />
            </Array>
          </mxGeometry>
        </mxCell>
        <mxCell id="SOpziabgbnz-NQojUkEX-19" value="&lt;font style=&quot;font-size: 8px;&quot;&gt;Nb&lt;/font&gt;" style="edgeLabel;resizable=0;html=1;align=center;verticalAlign=middle;" connectable="0" vertex="1" parent="SOpziabgbnz-NQojUkEX-18">
          <mxGeometry relative="1" as="geometry">
            <mxPoint x="-28" as="offset" />
          </mxGeometry>
        </mxCell>
        <mxCell id="SOpziabgbnz-NQojUkEX-20" value="" style="endArrow=classic;html=1;rounded=0;entryX=0.5;entryY=0;entryDx=0;entryDy=0;fillColor=#dae8fc;strokeColor=#6c8ebf;" edge="1" parent="1" target="SOpziabgbnz-NQojUkEX-27">
          <mxGeometry relative="1" as="geometry">
            <mxPoint x="110" y="299.33" as="sourcePoint" />
            <mxPoint x="160" y="299.33" as="targetPoint" />
            <Array as="points">
              <mxPoint x="170" y="300" />
            </Array>
          </mxGeometry>
        </mxCell>
        <mxCell id="SOpziabgbnz-NQojUkEX-21" value="&lt;font style=&quot;font-size: 8px;&quot;&gt;Nk&lt;/font&gt;" style="edgeLabel;resizable=0;html=1;align=center;verticalAlign=middle;" connectable="0" vertex="1" parent="SOpziabgbnz-NQojUkEX-20">
          <mxGeometry relative="1" as="geometry">
            <mxPoint x="-15" y="-1" as="offset" />
          </mxGeometry>
        </mxCell>
        <mxCell id="SOpziabgbnz-NQojUkEX-22" value="" style="endArrow=classic;html=1;rounded=0;entryX=0.25;entryY=0;entryDx=0;entryDy=0;fillColor=#dae8fc;strokeColor=#6c8ebf;" edge="1" parent="1" target="SOpziabgbnz-NQojUkEX-27">
          <mxGeometry relative="1" as="geometry">
            <mxPoint x="110" y="313.33" as="sourcePoint" />
            <mxPoint x="160" y="313.33" as="targetPoint" />
            <Array as="points">
              <mxPoint x="160" y="313" />
            </Array>
          </mxGeometry>
        </mxCell>
        <mxCell id="SOpziabgbnz-NQojUkEX-23" value="&lt;font style=&quot;font-size: 8px;&quot;&gt;Nr&lt;/font&gt;" style="edgeLabel;resizable=0;html=1;align=center;verticalAlign=middle;" connectable="0" vertex="1" parent="SOpziabgbnz-NQojUkEX-22">
          <mxGeometry relative="1" as="geometry">
            <mxPoint x="-3" as="offset" />
          </mxGeometry>
        </mxCell>
        <mxCell id="SOpziabgbnz-NQojUkEX-24" value="&lt;span style=&quot;font-size: 7px;&quot;&gt;&lt;b&gt;WAIT&lt;/b&gt;&lt;/span&gt;" style="rounded=1;whiteSpace=wrap;html=1;absoluteArcSize=1;arcSize=14;strokeWidth=2;" vertex="1" parent="1">
          <mxGeometry x="70" y="330" width="40" height="40" as="geometry" />
        </mxCell>
        <mxCell id="SOpziabgbnz-NQojUkEX-25" value="" style="endArrow=classic;html=1;rounded=0;exitX=0.003;exitY=0.549;exitDx=0;exitDy=0;exitPerimeter=0;entryX=0;entryY=0.5;entryDx=0;entryDy=0;" edge="1" parent="1">
          <mxGeometry width="50" height="50" relative="1" as="geometry">
            <mxPoint x="40" y="338" as="sourcePoint" />
            <mxPoint x="69" y="338" as="targetPoint" />
          </mxGeometry>
        </mxCell>
        <mxCell id="SOpziabgbnz-NQojUkEX-26" value="" style="endArrow=classic;html=1;rounded=0;exitX=0.003;exitY=0.549;exitDx=0;exitDy=0;exitPerimeter=0;entryX=0;entryY=0.5;entryDx=0;entryDy=0;" edge="1" parent="1">
          <mxGeometry width="50" height="50" relative="1" as="geometry">
            <mxPoint x="40" y="362" as="sourcePoint" />
            <mxPoint x="69" y="362" as="targetPoint" />
          </mxGeometry>
        </mxCell>
        <mxCell id="SOpziabgbnz-NQojUkEX-27" value="&lt;span style=&quot;font-size: 6px;&quot;&gt;&lt;b&gt;KEY&lt;br&gt;EXPANSION&lt;br&gt;&lt;/b&gt;&lt;/span&gt;" style="rounded=1;whiteSpace=wrap;html=1;absoluteArcSize=1;arcSize=14;strokeWidth=2;fillColor=#dae8fc;strokeColor=#6c8ebf;" vertex="1" parent="1">
          <mxGeometry x="150" y="330" width="40" height="40" as="geometry" />
        </mxCell>
        <mxCell id="SOpziabgbnz-NQojUkEX-29" value="" style="endArrow=classic;html=1;rounded=0;entryX=0;entryY=0.5;entryDx=0;entryDy=0;fillColor=#dae8fc;strokeColor=#6c8ebf;" edge="1" parent="1">
          <mxGeometry relative="1" as="geometry">
            <mxPoint x="110" y="358" as="sourcePoint" />
            <mxPoint x="150" y="358" as="targetPoint" />
          </mxGeometry>
        </mxCell>
        <mxCell id="SOpziabgbnz-NQojUkEX-30" value="&lt;font style=&quot;font-size: 8px;&quot;&gt;key&lt;/font&gt;" style="edgeLabel;resizable=0;html=1;align=center;verticalAlign=middle;" connectable="0" vertex="1" parent="SOpziabgbnz-NQojUkEX-29">
          <mxGeometry relative="1" as="geometry" />
        </mxCell>
        <mxCell id="SOpziabgbnz-NQojUkEX-75" style="edgeStyle=orthogonalEdgeStyle;rounded=0;orthogonalLoop=1;jettySize=auto;html=1;entryX=0;entryY=0.5;entryDx=0;entryDy=0;fillColor=#d5e8d4;strokeColor=#82b366;exitX=1;exitY=0.5;exitDx=0;exitDy=0;" edge="1" parent="1" source="SOpziabgbnz-NQojUkEX-32" target="SOpziabgbnz-NQojUkEX-73">
          <mxGeometry relative="1" as="geometry">
            <Array as="points">
              <mxPoint x="360" y="351" />
              <mxPoint x="360" y="339" />
            </Array>
          </mxGeometry>
        </mxCell>
        <mxCell id="SOpziabgbnz-NQojUkEX-32" value="&lt;b&gt;&lt;font style=&quot;font-size: 21px;&quot;&gt;RAM&lt;/font&gt;&lt;/b&gt;" style="rounded=1;whiteSpace=wrap;html=1;absoluteArcSize=1;arcSize=7;strokeWidth=2;" vertex="1" parent="1">
          <mxGeometry x="230" y="333" width="105" height="35" as="geometry" />
        </mxCell>
        <mxCell id="SOpziabgbnz-NQojUkEX-34" value="" style="endArrow=classic;html=1;rounded=0;entryX=0;entryY=0.5;entryDx=0;entryDy=0;fillColor=#dae8fc;strokeColor=#6c8ebf;" edge="1" parent="1">
          <mxGeometry relative="1" as="geometry">
            <mxPoint x="190" y="350" as="sourcePoint" />
            <mxPoint x="230" y="350" as="targetPoint" />
          </mxGeometry>
        </mxCell>
        <mxCell id="SOpziabgbnz-NQojUkEX-35" value="&lt;font style=&quot;font-size: 8px;&quot;&gt;key&lt;/font&gt;" style="edgeLabel;resizable=0;html=1;align=center;verticalAlign=middle;" connectable="0" vertex="1" parent="SOpziabgbnz-NQojUkEX-34">
          <mxGeometry relative="1" as="geometry" />
        </mxCell>
        <mxCell id="SOpziabgbnz-NQojUkEX-37" value="&lt;b style=&quot;font-size: 6px;&quot;&gt;&lt;font style=&quot;font-size: 6px;&quot;&gt;ADD&lt;br&gt;ROUNDKEY&lt;br&gt;&lt;/font&gt;&lt;/b&gt;" style="rounded=1;whiteSpace=wrap;html=1;absoluteArcSize=1;arcSize=14;strokeWidth=2;fillColor=#f8cecc;strokeColor=#b85450;" vertex="1" parent="1">
          <mxGeometry x="150" y="220" width="40" height="40" as="geometry" />
        </mxCell>
        <mxCell id="SOpziabgbnz-NQojUkEX-39" value="" style="endArrow=classic;html=1;rounded=0;entryX=0;entryY=0.5;entryDx=0;entryDy=0;fillColor=#dae8fc;strokeColor=#6c8ebf;" edge="1" parent="1">
          <mxGeometry relative="1" as="geometry">
            <mxPoint x="110" y="339" as="sourcePoint" />
            <mxPoint x="150" y="339" as="targetPoint" />
          </mxGeometry>
        </mxCell>
        <mxCell id="SOpziabgbnz-NQojUkEX-40" value="&lt;span style=&quot;font-size: 8px;&quot;&gt;state&lt;/span&gt;" style="edgeLabel;resizable=0;html=1;align=center;verticalAlign=middle;" connectable="0" vertex="1" parent="SOpziabgbnz-NQojUkEX-39">
          <mxGeometry relative="1" as="geometry" />
        </mxCell>
        <mxCell id="SOpziabgbnz-NQojUkEX-44" value="" style="endArrow=classic;html=1;rounded=0;exitX=1.007;exitY=0.221;exitDx=0;exitDy=0;exitPerimeter=0;entryX=0;entryY=0.75;entryDx=0;entryDy=0;fillColor=#f8cecc;strokeColor=#b85450;" edge="1" parent="1" source="SOpziabgbnz-NQojUkEX-24" target="SOpziabgbnz-NQojUkEX-37">
          <mxGeometry width="50" height="50" relative="1" as="geometry">
            <mxPoint x="110" y="330" as="sourcePoint" />
            <mxPoint x="139" y="330" as="targetPoint" />
            <Array as="points">
              <mxPoint x="120" y="339" />
              <mxPoint x="120" y="309" />
              <mxPoint x="120" y="250" />
            </Array>
          </mxGeometry>
        </mxCell>
        <mxCell id="SOpziabgbnz-NQojUkEX-45" value="" style="endArrow=classic;html=1;rounded=0;exitX=0.996;exitY=0.702;exitDx=0;exitDy=0;exitPerimeter=0;entryX=0;entryY=0.25;entryDx=0;entryDy=0;fillColor=#f8cecc;strokeColor=#b85450;" edge="1" parent="1" source="SOpziabgbnz-NQojUkEX-24" target="SOpziabgbnz-NQojUkEX-37">
          <mxGeometry width="50" height="50" relative="1" as="geometry">
            <mxPoint x="104" y="358.08000000000004" as="sourcePoint" />
            <mxPoint x="224" y="289" as="targetPoint" />
            <Array as="points">
              <mxPoint x="114" y="358" />
              <mxPoint x="114" y="320" />
              <mxPoint x="114" y="289" />
              <mxPoint x="114" y="230" />
            </Array>
          </mxGeometry>
        </mxCell>
        <mxCell id="SOpziabgbnz-NQojUkEX-46" value="" style="rounded=1;whiteSpace=wrap;html=1;absoluteArcSize=1;arcSize=14;strokeWidth=2;fillColor=#ffe6cc;strokeColor=#d79b00;" vertex="1" parent="1">
          <mxGeometry x="230" y="210" width="180" height="115" as="geometry" />
        </mxCell>
        <mxCell id="SOpziabgbnz-NQojUkEX-48" value="" style="endArrow=classic;html=1;rounded=0;entryX=0;entryY=0.5;entryDx=0;entryDy=0;fillColor=#f8cecc;strokeColor=#b85450;" edge="1" parent="1">
          <mxGeometry relative="1" as="geometry">
            <mxPoint x="190" y="249.3" as="sourcePoint" />
            <mxPoint x="230" y="249.3" as="targetPoint" />
          </mxGeometry>
        </mxCell>
        <mxCell id="SOpziabgbnz-NQojUkEX-49" value="&lt;font style=&quot;font-size: 8px;&quot;&gt;key&lt;/font&gt;" style="edgeLabel;resizable=0;html=1;align=center;verticalAlign=middle;" connectable="0" vertex="1" parent="SOpziabgbnz-NQojUkEX-48">
          <mxGeometry relative="1" as="geometry" />
        </mxCell>
        <mxCell id="SOpziabgbnz-NQojUkEX-50" value="" style="endArrow=classic;html=1;rounded=0;entryX=0;entryY=0.5;entryDx=0;entryDy=0;fillColor=#f8cecc;strokeColor=#b85450;" edge="1" parent="1">
          <mxGeometry relative="1" as="geometry">
            <mxPoint x="190" y="230.3" as="sourcePoint" />
            <mxPoint x="230" y="230.3" as="targetPoint" />
          </mxGeometry>
        </mxCell>
        <mxCell id="SOpziabgbnz-NQojUkEX-51" value="&lt;span style=&quot;font-size: 8px;&quot;&gt;state&lt;/span&gt;" style="edgeLabel;resizable=0;html=1;align=center;verticalAlign=middle;" connectable="0" vertex="1" parent="SOpziabgbnz-NQojUkEX-50">
          <mxGeometry relative="1" as="geometry" />
        </mxCell>
        <mxCell id="SOpziabgbnz-NQojUkEX-52" value="&lt;b style=&quot;font-size: 6px;&quot;&gt;&lt;font style=&quot;font-size: 6px;&quot;&gt;SUBBYTES&lt;br&gt;&lt;/font&gt;&lt;/b&gt;" style="rounded=1;whiteSpace=wrap;html=1;absoluteArcSize=1;arcSize=14;strokeWidth=2;fillColor=#f8cecc;strokeColor=#b85450;" vertex="1" parent="1">
          <mxGeometry x="260" y="222" width="40" height="40" as="geometry" />
        </mxCell>
        <mxCell id="SOpziabgbnz-NQojUkEX-53" value="&lt;b style=&quot;font-size: 6px;&quot;&gt;&lt;font style=&quot;font-size: 6px;&quot;&gt;MIX&lt;br&gt;COLUMNS&lt;br&gt;&lt;/font&gt;&lt;/b&gt;" style="rounded=1;whiteSpace=wrap;html=1;absoluteArcSize=1;arcSize=14;strokeWidth=2;fillColor=#f8cecc;strokeColor=#b85450;" vertex="1" parent="1">
          <mxGeometry x="340" y="222" width="40" height="40" as="geometry" />
        </mxCell>
        <mxCell id="SOpziabgbnz-NQojUkEX-54" value="&lt;b style=&quot;font-size: 6px;&quot;&gt;&lt;font style=&quot;font-size: 6px;&quot;&gt;ADD&lt;br&gt;ROUNDKEY&lt;br&gt;&lt;/font&gt;&lt;/b&gt;" style="rounded=1;whiteSpace=wrap;html=1;absoluteArcSize=1;arcSize=14;strokeWidth=2;fillColor=#f8cecc;strokeColor=#b85450;" vertex="1" parent="1">
          <mxGeometry x="340" y="271" width="40" height="40" as="geometry" />
        </mxCell>
        <mxCell id="SOpziabgbnz-NQojUkEX-61" style="edgeStyle=orthogonalEdgeStyle;rounded=0;orthogonalLoop=1;jettySize=auto;html=1;entryX=0;entryY=0.5;entryDx=0;entryDy=0;fillColor=#f8cecc;strokeColor=#b85450;" edge="1" parent="1" source="SOpziabgbnz-NQojUkEX-55" target="SOpziabgbnz-NQojUkEX-53">
          <mxGeometry relative="1" as="geometry">
            <Array as="points">
              <mxPoint x="310" y="291" />
              <mxPoint x="310" y="242" />
            </Array>
          </mxGeometry>
        </mxCell>
        <mxCell id="SOpziabgbnz-NQojUkEX-55" value="&lt;b style=&quot;font-size: 6px;&quot;&gt;&lt;font style=&quot;font-size: 6px;&quot;&gt;SHIFTROW&lt;br&gt;&lt;/font&gt;&lt;/b&gt;" style="rounded=1;whiteSpace=wrap;html=1;absoluteArcSize=1;arcSize=14;strokeWidth=2;fillColor=#f8cecc;strokeColor=#b85450;" vertex="1" parent="1">
          <mxGeometry x="260" y="271" width="40" height="40" as="geometry" />
        </mxCell>
        <mxCell id="SOpziabgbnz-NQojUkEX-59" value="" style="endArrow=classic;html=1;rounded=0;exitX=0.003;exitY=0.549;exitDx=0;exitDy=0;exitPerimeter=0;entryX=0;entryY=0.5;entryDx=0;entryDy=0;fillColor=#f8cecc;strokeColor=#b85450;" edge="1" parent="1">
          <mxGeometry width="50" height="50" relative="1" as="geometry">
            <mxPoint x="231" y="230" as="sourcePoint" />
            <mxPoint x="260" y="230" as="targetPoint" />
          </mxGeometry>
        </mxCell>
        <mxCell id="SOpziabgbnz-NQojUkEX-60" value="" style="endArrow=classic;html=1;rounded=0;exitX=0;exitY=0.5;exitDx=0;exitDy=0;entryX=0;entryY=0.5;entryDx=0;entryDy=0;fillColor=#f8cecc;strokeColor=#b85450;" edge="1" parent="1" source="SOpziabgbnz-NQojUkEX-52">
          <mxGeometry width="50" height="50" relative="1" as="geometry">
            <mxPoint x="231" y="289.83" as="sourcePoint" />
            <mxPoint x="260" y="289.83" as="targetPoint" />
            <Array as="points">
              <mxPoint x="240" y="242" />
              <mxPoint x="240" y="290" />
            </Array>
          </mxGeometry>
        </mxCell>
        <mxCell id="SOpziabgbnz-NQojUkEX-63" value="" style="endArrow=classic;html=1;rounded=0;exitX=0;exitY=0.5;exitDx=0;exitDy=0;entryX=0;entryY=0.5;entryDx=0;entryDy=0;fillColor=#f8cecc;strokeColor=#b85450;" edge="1" parent="1">
          <mxGeometry width="50" height="50" relative="1" as="geometry">
            <mxPoint x="340" y="252" as="sourcePoint" />
            <mxPoint x="340" y="299.83" as="targetPoint" />
            <Array as="points">
              <mxPoint x="320" y="252" />
              <mxPoint x="320" y="300" />
            </Array>
          </mxGeometry>
        </mxCell>
        <mxCell id="SOpziabgbnz-NQojUkEX-64" style="edgeStyle=orthogonalEdgeStyle;rounded=0;orthogonalLoop=1;jettySize=auto;html=1;entryX=0.5;entryY=1;entryDx=0;entryDy=0;fillColor=#f8cecc;strokeColor=#b85450;" edge="1" parent="1" source="SOpziabgbnz-NQojUkEX-32" target="SOpziabgbnz-NQojUkEX-54">
          <mxGeometry relative="1" as="geometry" />
        </mxCell>
        <mxCell id="SOpziabgbnz-NQojUkEX-66" value="" style="endArrow=classic;html=1;rounded=0;exitX=0.003;exitY=0.549;exitDx=0;exitDy=0;exitPerimeter=0;entryX=0;entryY=0.5;entryDx=0;entryDy=0;fillColor=#f8cecc;strokeColor=#b85450;" edge="1" parent="1">
          <mxGeometry width="50" height="50" relative="1" as="geometry">
            <mxPoint x="381" y="289.83" as="sourcePoint" />
            <mxPoint x="410" y="289.83" as="targetPoint" />
          </mxGeometry>
        </mxCell>
        <mxCell id="SOpziabgbnz-NQojUkEX-67" value="&lt;b style=&quot;font-size: 6px;&quot;&gt;&lt;font style=&quot;font-size: 6px;&quot;&gt;SUBBYTES&lt;br&gt;OUTPUT&lt;br&gt;&lt;/font&gt;&lt;/b&gt;" style="rounded=1;whiteSpace=wrap;html=1;absoluteArcSize=1;arcSize=14;strokeWidth=2;fillColor=#d5e8d4;strokeColor=#82b366;" vertex="1" parent="1">
          <mxGeometry x="451" y="262" width="40" height="40" as="geometry" />
        </mxCell>
        <mxCell id="SOpziabgbnz-NQojUkEX-74" style="edgeStyle=orthogonalEdgeStyle;rounded=0;orthogonalLoop=1;jettySize=auto;html=1;entryX=1;entryY=0.5;entryDx=0;entryDy=0;fillColor=#d5e8d4;strokeColor=#82b366;" edge="1" parent="1" source="SOpziabgbnz-NQojUkEX-68" target="SOpziabgbnz-NQojUkEX-73">
          <mxGeometry relative="1" as="geometry">
            <Array as="points">
              <mxPoint x="511" y="235" />
              <mxPoint x="511" y="339" />
            </Array>
          </mxGeometry>
        </mxCell>
        <mxCell id="SOpziabgbnz-NQojUkEX-68" value="&lt;b style=&quot;font-size: 6px;&quot;&gt;&lt;font style=&quot;font-size: 6px;&quot;&gt;SHIFTROW&lt;br&gt;OUTPUT&lt;br&gt;&lt;/font&gt;&lt;/b&gt;" style="rounded=1;whiteSpace=wrap;html=1;absoluteArcSize=1;arcSize=14;strokeWidth=2;fillColor=#d5e8d4;strokeColor=#82b366;" vertex="1" parent="1">
          <mxGeometry x="451" y="215" width="40" height="40" as="geometry" />
        </mxCell>
        <mxCell id="SOpziabgbnz-NQojUkEX-70" value="" style="endArrow=classic;html=1;rounded=0;entryX=0;entryY=0.5;entryDx=0;entryDy=0;fillColor=#d5e8d4;strokeColor=#82b366;" edge="1" parent="1">
          <mxGeometry relative="1" as="geometry">
            <mxPoint x="410" y="289.8" as="sourcePoint" />
            <mxPoint x="450" y="289.8" as="targetPoint" />
          </mxGeometry>
        </mxCell>
        <mxCell id="SOpziabgbnz-NQojUkEX-71" value="&lt;span style=&quot;font-size: 8px;&quot;&gt;state&lt;/span&gt;" style="edgeLabel;resizable=0;html=1;align=center;verticalAlign=middle;" connectable="0" vertex="1" parent="SOpziabgbnz-NQojUkEX-70">
          <mxGeometry relative="1" as="geometry" />
        </mxCell>
        <mxCell id="SOpziabgbnz-NQojUkEX-72" value="" style="endArrow=classic;html=1;rounded=0;exitX=0;exitY=0.25;exitDx=0;exitDy=0;entryX=0;entryY=0.5;entryDx=0;entryDy=0;fillColor=#d5e8d4;strokeColor=#82b366;" edge="1" parent="1" source="SOpziabgbnz-NQojUkEX-67" target="SOpziabgbnz-NQojUkEX-68">
          <mxGeometry width="50" height="50" relative="1" as="geometry">
            <mxPoint x="445" y="225" as="sourcePoint" />
            <mxPoint x="445" y="272.83" as="targetPoint" />
            <Array as="points">
              <mxPoint x="435" y="272" />
              <mxPoint x="425" y="272" />
              <mxPoint x="425" y="235" />
            </Array>
          </mxGeometry>
        </mxCell>
        <mxCell id="SOpziabgbnz-NQojUkEX-73" value="&lt;b style=&quot;font-size: 6px;&quot;&gt;&lt;font style=&quot;font-size: 6px;&quot;&gt;ADD&lt;br&gt;ROUNDKEY&lt;br&gt;&lt;/font&gt;&lt;/b&gt;" style="rounded=1;whiteSpace=wrap;html=1;absoluteArcSize=1;arcSize=14;strokeWidth=2;fillColor=#d5e8d4;strokeColor=#82b366;" vertex="1" parent="1">
          <mxGeometry x="451" y="319" width="40" height="40" as="geometry" />
        </mxCell>
        <mxCell id="SOpziabgbnz-NQojUkEX-77" value="" style="endArrow=classic;html=1;rounded=0;exitX=0;exitY=0.75;exitDx=0;exitDy=0;fillColor=#d5e8d4;strokeColor=#82b366;entryX=0.999;entryY=0.931;entryDx=0;entryDy=0;entryPerimeter=0;" edge="1" parent="1" source="SOpziabgbnz-NQojUkEX-73" target="SOpziabgbnz-NQojUkEX-2">
          <mxGeometry width="50" height="50" relative="1" as="geometry">
            <mxPoint x="385" y="365" as="sourcePoint" />
            <mxPoint x="385" y="380" as="targetPoint" />
            <Array as="points">
              <mxPoint x="385" y="349" />
              <mxPoint x="385" y="368" />
            </Array>
          </mxGeometry>
        </mxCell>
        <mxCell id="SOpziabgbnz-NQojUkEX-78" value="" style="endArrow=classic;html=1;rounded=0;" edge="1" parent="1">
          <mxGeometry relative="1" as="geometry">
            <mxPoint x="530" y="367.52" as="sourcePoint" />
            <mxPoint x="630" y="367.52" as="targetPoint" />
          </mxGeometry>
        </mxCell>
        <mxCell id="SOpziabgbnz-NQojUkEX-79" value="cipher_text_o" style="edgeLabel;resizable=0;html=1;align=center;verticalAlign=middle;" connectable="0" vertex="1" parent="SOpziabgbnz-NQojUkEX-78">
          <mxGeometry relative="1" as="geometry" />
        </mxCell>
        <mxCell id="SOpziabgbnz-NQojUkEX-80" value="" style="endArrow=classic;html=1;rounded=0;exitX=0.003;exitY=0.549;exitDx=0;exitDy=0;exitPerimeter=0;entryX=1;entryY=0.831;entryDx=0;entryDy=0;fillColor=#d5e8d4;strokeColor=#82b366;entryPerimeter=0;" edge="1" parent="1" target="SOpziabgbnz-NQojUkEX-2">
          <mxGeometry width="50" height="50" relative="1" as="geometry">
            <mxPoint x="491" y="349.79999999999995" as="sourcePoint" />
            <mxPoint x="520" y="349.79999999999995" as="targetPoint" />
          </mxGeometry>
        </mxCell>
        <mxCell id="SOpziabgbnz-NQojUkEX-82" value="" style="endArrow=classic;html=1;rounded=0;" edge="1" parent="1">
          <mxGeometry relative="1" as="geometry">
            <mxPoint x="530" y="349.52" as="sourcePoint" />
            <mxPoint x="630" y="349.52" as="targetPoint" />
            <Array as="points">
              <mxPoint x="585" y="350" />
            </Array>
          </mxGeometry>
        </mxCell>
        <mxCell id="SOpziabgbnz-NQojUkEX-83" value="done_o" style="edgeLabel;resizable=0;html=1;align=center;verticalAlign=middle;" connectable="0" vertex="1" parent="SOpziabgbnz-NQojUkEX-82">
          <mxGeometry relative="1" as="geometry" />
        </mxCell>
      </root>
    </mxGraphModel>
  </diagram>
</mxfile>
